<svg id="crown" xmlns="http://www.w3.org/2000/svg" xml:space="preserve" viewBox="0 0 432.9 432.9" version="1.1" y="0px" x="0px" xmlns:xlink="http://www.w3.org/1999/xlink" enable-background="new 0 0 432.9 432.9">
    <path d="m432.9 216.4c0 119.5-96.9 216.4-216.4 216.4s-216.5-96.8-216.5-216.4 96.9-216.4 216.4-216.4 216.5 96.9 216.5 216.4zm-310.7-57.2c8.3 3.4 17.7-0.5 21.1-8.7s-0.5-17.7-8.8-21.1c-8.1-3.3-17.6 0.6-21 8.9-3.3 8.2 0.6 17.6 8.7 20.9m-36.5 21.4c8.3 3.4 17.7-0.5 21.1-8.7s-0.5-17.7-8.8-21.1c-8.1-3.3-17.6 0.6-21 8.9-3.3 8.2 0.6 17.6 8.7 20.9m-10.7 40.6c8.3 3.4 17.7-0.5 21.1-8.7s-0.5-17.7-8.8-21.1c-8.1-3.3-17.6 0.6-21 8.9-3.3 8.2 0.6 17.6 8.7 20.9m88-49.1c8.3 3.4 17.7-0.5 21.1-8.7s-0.5-17.7-8.8-21.1c-8.1-3.3-17.6 0.6-21 8.9-3.4 8.2 0.6 17.6 8.7 20.9m147.6-12.9c8.1-3.3 12-12.8 8.7-20.9-3.4-8.2-12.8-12.2-21-8.9-8.3 3.4-12.2 12.9-8.8 21.1 3.4 8.3 12.8 12.2 21.1 8.7m36.5 21.4c8.1-3.3 12-12.8 8.7-20.9-3.4-8.2-12.8-12.2-21-8.9-8.3 3.4-12.2 12.9-8.8 21.1 3.4 8.3 12.8 12.2 21.1 8.7m10.7 40.6c8.1-3.3 12.1-12.8 8.7-20.9-3.4-8.2-12.8-12.2-21-8.9-8.3 3.4-12.2 12.9-8.8 21.1s12.8 12.2 21.1 8.7m-87.9-49.1c8.1-3.3 12-12.7 8.7-20.9-3.4-8.2-12.8-12.2-21-8.9-8.3 3.4-12.2 12.9-8.8 21.1s12.8 12.1 21.1 8.7m-45-41.6l20.5 10.7v-30l-20.4 6.4-0.1-0.1c-0.6-0.8-1.2-1.4-2-2l-0.1-0.2 8.2-25.9h-29.4l8.2 25.9-0.1 0.1c-0.7 0.6-1.4 1.3-2 2l-0.1 0.1-20.4-6.4v30l20.4-10.7c0.6 0.8 1.3 1.5 2.1 2.1l-11.7 35.3v0.1c-0.5 1.8-0.8 3.6-0.8 5.6 0 9.6 7 17.4 16.2 18.8 0.1 0 0.3 0 0.4 0.1 0.8 0.1 1.6 0.2 2.4 0.2s1.6-0.1 2.4-0.2c0.1 0 0.3 0 0.4-0.1 9.2-1.3 16.2-9.2 16.2-18.8 0-1.9 0.1-3.8-0.9-5.6h0.1v-0.1l-11.7-35.3c0.9-0.5 1.6-1.2 2.2-2m-8.5 172.8c38.7 0 75.3 2.6 108 7.3 9.3-39 20.5-61.3 32.2-77.2l-21.9-7.8c2.2 11.1 2.5 16.3 0.1 23.5-3.6-3.5-7-10-9.7-20l-10.6 35.4c6.5-4.4 11.4-7.3 17.1-7.5-10.1 21.8-22.7 27.4-30.9 25.9-10-1.8-14.6-10.7-13-18.3 2.3-10.7 13.3-13.5 18.4-1 9.8-20-6.8-26.3-17.6-20.3 16.5-16.4 18.4-31 5.1-48.7-18.5 14.1-18.7 28.2-10.4 47.9-10.8-12.4-27.6-5.7-21.6 14.3 7.8-12.1 18.1-4.5 16.5 7-1.4 10-14.6 18.1-31 16.6-23.5-2.1-24.9-18.4-25.5-31.8 5.8-1.1 16.2 4.3 25.1 16.8l3.3-37.5c-9.7 10.1-18.5 12.1-28.2 12.4 3.2-10.1 18.2-26.7 18.2-26.7h-47s14.9 16.5 18.2 26.7c-9.8-0.3-18.5-2.3-28.2-12.3l3.3 37.5c8.9-12.5 19.3-17.9 25.1-16.8-0.6 13.5-2 29.7-25.5 31.8-16.4 1.4-29.6-6.6-31-16.6-1.6-11.5 8.7-19.1 16.5-7 6.1-20-10.7-26.6-21.6-14.3 8.3-19.7 8.1-33.7-10.4-47.9-13.3 17.7-11.4 32.3 5.1 48.7-10.7-5.9-27.4 0.3-17.6 20.3 5.1-12.5 16.1-9.7 18.4 1 1.5 7.6-3 16.5-13 18.3-8.2 1.5-20.8-4.1-30.9-25.9 5.7 0.1 10.7 3 17.2 7.5l-10.6-35.4c-2.7 9.9-6.1 16.4-9.7 20-2.4-7.2-2.1-12.3 0.1-23.5l-21.9 7.8c11.6 15.9 22.9 38.2 32.2 77.2 32.4-4.8 69-7.4 107.7-7.4"/>
</svg>
